<svg xmlns="http://www.w3.org/2000/svg" width="281" height="281" viewBox="0 0 281 281">
  <path d="M 78.25 136.50 L 77.50 137.50 L 77.75 186.50 L 79.25 188.00 L 80.50 186.75 L 80.50 149.00 L 81.75 148.25 L 85.25 150.75 L 86.25 153.50 L 86.25 181.25 L 85.50 191.75 L 105.75 212.25 L 106.75 212.25 L 107.25 211.50 L 107.25 187.25 L 106.00 187.00 L 104.50 192.25 L 102.00 195.50 L 99.50 196.50 L 97.00 196.00 L 96.00 194.25 L 96.00 178.00 L 97.00 177.50 L 99.50 179.50 L 101.25 183.75 L 102.50 183.50 L 103.25 179.25 L 105.25 174.50 L 107.00 172.00 L 107.00 171.00 L 105.75 170.50 L 100.50 171.50 L 96.75 171.50 L 96.25 171.00 L 96.00 159.00 L 96.75 158.50 L 100.25 161.75 L 103.00 167.25 L 104.75 166.25 L 110.00 159.50 L 101.50 152.75 Z" fill="#FFFFFF" fill-rule="evenodd"/>
  <path d="M 267.75 152.25 L 257.00 150.75 L 245.25 150.50 L 242.00 149.50 L 238.50 146.00 L 237.25 142.75 L 237.25 139.75 L 236.50 138.50 L 235.50 139.50 L 234.50 144.75 L 231.00 149.25 L 226.50 151.50 L 222.50 151.75 L 222.00 150.50 L 222.25 143.50 L 225.00 141.00 L 225.25 140.00 L 217.00 130.00 L 215.50 126.25 L 214.00 125.50 L 205.00 134.00 L 205.25 135.00 L 208.25 137.75 L 210.50 141.25 L 210.50 169.50 L 208.25 166.25 L 203.25 153.75 L 201.25 150.25 L 199.75 144.00 L 200.25 140.50 L 199.75 139.25 L 198.00 139.75 L 188.25 148.50 L 186.75 150.50 L 185.25 150.75 L 178.75 154.50 L 170.75 160.25 L 164.75 166.25 L 161.50 171.75 L 160.50 175.50 L 160.50 226.75 L 161.00 227.75 L 162.50 227.25 L 167.00 223.50 L 176.25 214.25 L 187.25 201.25 L 186.50 193.75 L 187.00 151.50 L 187.50 151.00 L 189.50 152.75 L 191.50 157.50 L 191.75 202.75 L 192.50 203.00 L 198.25 199.25 L 205.25 193.75 L 205.00 192.75 L 201.50 192.50 L 200.25 191.00 L 199.75 186.50 L 200.00 168.25 L 203.25 172.25 L 206.50 179.50 L 209.50 189.75 L 209.75 193.25 L 207.25 196.25 L 169.75 226.00 L 157.50 238.00 L 150.25 247.00 L 150.25 244.75 L 152.25 240.25 L 159.50 231.75 L 159.50 231.00 L 156.25 228.25 L 155.25 225.00 L 155.25 163.50 L 156.25 160.25 L 155.75 159.25 L 154.00 159.75 L 142.00 172.00 L 142.00 172.75 L 144.50 175.00 L 144.75 268.50 L 145.75 268.50 L 148.25 260.75 L 156.25 247.50 L 161.00 241.75 L 170.75 232.00 L 199.50 208.25 L 219.50 193.25 L 226.50 189.25 L 235.00 186.75 L 234.75 185.75 L 229.50 184.50 L 226.50 182.75 L 223.50 179.50 L 222.25 176.75 L 222.00 153.50 L 222.50 153.00 L 227.00 153.25 L 231.25 155.25 L 233.50 157.50 L 234.50 159.50 L 235.75 165.25 L 236.75 165.50 L 237.25 161.25 L 238.25 158.50 L 241.50 155.25 L 251.00 153.25 L 266.25 153.00 Z M 175.25 161.75 L 175.75 162.50 L 175.50 207.00 L 172.50 210.50 L 172.00 210.00 L 172.25 165.50 L 173.25 163.25 Z" fill="#FFFFFF" fill-rule="evenodd"/>
  <path d="M 124.00 93.75 L 123.50 94.50 L 123.50 147.50 L 124.75 149.75 L 138.25 164.00 L 139.50 163.75 L 139.25 162.00 L 134.25 152.25 L 132.25 146.25 L 132.25 113.00 L 133.25 113.00 L 134.50 115.50 L 136.50 122.75 L 137.50 133.50 L 137.50 141.00 L 136.00 148.75 L 139.50 155.50 L 142.00 163.50 L 143.25 163.00 L 145.25 156.00 L 148.25 150.25 L 148.50 146.25 L 147.25 138.25 L 147.25 129.50 L 148.25 124.50 L 148.25 121.00 L 150.25 115.00 L 151.25 113.50 L 151.75 113.75 L 151.50 149.25 L 146.50 160.50 L 146.00 163.00 L 146.75 163.25 L 158.25 151.25 L 161.25 147.00 L 161.25 94.50 L 160.75 93.75 L 159.75 93.75 L 158.25 94.75 L 152.50 100.50 L 148.50 106.25 L 142.50 119.00 L 138.25 109.25 L 134.00 102.50 L 127.50 95.50 L 125.00 93.75 Z" fill="#FFFFFF" fill-rule="evenodd"/>
  <path d="M 236.75 72.00 L 235.50 72.75 L 235.50 95.25 L 234.50 99.25 L 231.50 106.25 L 231.75 108.50 L 234.25 113.00 L 236.00 111.75 L 239.25 104.25 L 241.25 94.75 L 241.25 86.75 L 240.25 80.75 L 239.00 76.50 Z" fill="#FFFFFF" fill-rule="evenodd"/>
  <path d="M 73.75 71.25 L 75.50 77.00 L 75.50 85.25 L 69.75 92.50 L 69.50 102.00 L 70.00 103.00 L 71.00 102.75 L 72.25 99.00 L 75.00 95.25 L 75.50 95.75 L 75.50 121.50 L 59.50 138.75 L 59.50 140.50 L 62.50 142.50 L 62.50 151.00 L 62.00 151.50 L 58.75 151.25 L 56.00 150.50 L 53.25 148.75 L 51.50 147.00 L 50.25 144.25 L 50.00 140.00 L 48.75 138.25 L 48.00 138.25 L 47.50 143.50 L 46.50 146.25 L 42.75 149.50 L 39.25 150.50 L 17.75 151.75 L 16.50 152.50 L 20.50 153.25 L 33.75 153.25 L 38.00 154.25 L 41.00 154.25 L 43.50 155.25 L 46.50 158.25 L 47.50 160.75 L 48.00 166.00 L 49.00 166.00 L 50.00 164.50 L 50.25 160.25 L 52.50 156.25 L 58.25 153.25 L 63.00 153.25 L 63.50 153.75 L 63.50 172.75 L 62.50 177.75 L 59.00 182.50 L 55.25 184.50 L 51.00 185.75 L 51.00 187.00 L 58.75 189.25 L 71.25 196.50 L 90.25 211.25 L 115.00 232.25 L 124.50 242.25 L 130.50 250.00 L 137.50 262.25 L 138.75 266.75 L 140.50 268.00 L 140.75 180.25 L 139.25 179.75 L 135.50 183.75 L 134.50 183.75 L 126.75 174.50 L 125.50 175.00 L 125.50 209.00 L 126.00 210.00 L 127.25 209.50 L 127.25 191.50 L 128.25 190.75 L 129.50 192.25 L 129.75 218.00 L 129.25 218.75 L 123.50 213.75 L 122.50 211.25 L 122.75 165.00 L 123.25 164.50 L 134.50 178.25 L 136.00 177.75 L 138.75 172.00 L 138.75 171.00 L 127.50 157.50 L 125.00 156.00 L 111.00 167.50 L 110.50 169.00 L 110.50 216.00 L 122.00 225.00 L 126.75 229.75 L 132.50 238.75 L 134.50 243.75 L 135.00 248.00 L 127.25 238.25 L 122.00 232.75 L 109.75 221.25 L 86.00 197.25 L 75.00 188.00 L 74.50 186.25 L 75.00 136.25 L 73.25 135.75 L 69.75 137.75 L 69.25 137.00 L 73.50 132.25 L 75.25 131.25 L 78.00 131.25 L 99.75 148.00 L 101.50 148.25 L 101.00 146.75 L 88.25 132.50 L 86.50 127.50 L 86.25 75.75 L 87.75 73.00 L 81.25 72.50 L 75.25 70.50 Z" fill="#FFFFFF" fill-rule="evenodd"/>
  <path d="M 49.00 69.00 L 47.50 70.50 L 47.50 71.75 L 44.50 79.00 L 44.50 81.50 L 43.50 84.25 L 43.50 93.25 L 44.50 96.25 L 44.50 99.00 L 45.50 100.75 L 45.50 102.50 L 48.50 109.50 L 49.25 110.25 L 50.75 110.25 L 52.00 108.00 L 52.00 104.50 L 51.25 99.00 L 49.25 92.75 L 48.75 82.75 L 49.25 72.00 L 50.00 69.50 Z" fill="#FFFFFF" fill-rule="evenodd"/>
  <path d="M 116.25 67.75 L 114.50 73.00 L 109.00 79.75 L 104.00 83.50 L 90.50 91.50 L 90.50 92.75 L 92.50 94.75 L 92.50 126.25 L 90.25 129.00 L 90.25 130.00 L 105.50 148.25 L 107.25 149.25 L 107.25 147.00 L 105.25 143.25 L 103.25 137.25 L 102.75 131.75 L 103.00 114.50 L 104.00 114.25 L 108.50 118.25 L 109.50 119.75 L 109.50 137.75 L 108.50 140.00 L 108.50 142.75 L 111.50 148.75 L 114.50 157.75 L 113.75 160.75 L 115.00 161.00 L 122.00 152.50 L 120.25 148.50 L 120.25 92.75 L 121.50 90.00 L 123.00 88.50 L 124.75 88.00 L 131.25 88.25 L 135.75 90.00 L 138.50 92.75 L 140.50 98.25 L 141.75 104.25 L 142.75 104.50 L 144.00 101.50 L 144.25 97.75 L 145.25 94.75 L 148.75 90.25 L 150.25 89.25 L 154.25 88.25 L 161.25 88.25 L 163.25 90.00 L 164.50 94.25 L 164.50 149.00 L 160.50 154.50 L 158.75 158.00 L 158.50 168.00 L 159.00 169.00 L 159.75 169.00 L 164.25 161.75 L 185.00 139.75 L 196.00 126.75 L 193.25 122.00 L 193.25 114.50 L 192.75 113.25 L 192.00 113.25 L 190.75 114.75 L 190.50 117.00 L 188.50 121.75 L 183.50 130.25 L 175.75 138.50 L 175.25 138.25 L 175.25 113.00 L 177.00 113.25 L 179.25 115.25 L 180.50 119.25 L 180.50 122.25 L 181.00 123.25 L 181.75 123.25 L 183.25 115.75 L 184.50 113.00 L 189.00 108.00 L 192.50 105.50 L 192.25 104.00 L 190.25 103.50 L 187.50 101.00 L 187.00 97.00 L 189.50 91.75 L 194.00 87.50 L 194.25 86.25 L 193.75 85.75 L 185.75 85.50 L 180.50 83.25 L 177.50 81.25 L 172.25 75.75 L 168.50 68.50 L 167.50 69.25 L 166.50 78.00 L 163.25 84.25 L 159.25 86.75 L 154.75 86.50 L 151.75 85.50 L 148.25 83.50 L 145.25 79.25 L 143.25 66.00 L 142.25 64.50 L 141.50 66.25 L 140.50 77.00 L 138.50 81.75 L 137.25 83.25 L 133.50 85.50 L 130.25 86.50 L 125.00 86.75 L 121.25 83.50 L 119.25 80.00 L 118.25 76.75 L 117.50 69.25 L 117.00 68.00 Z M 175.50 87.25 L 180.25 90.75 L 182.50 94.00 L 183.50 97.25 L 183.50 99.25 L 182.25 102.00 L 179.25 105.50 L 176.25 107.50 L 175.25 107.25 L 175.00 88.00 Z M 108.50 87.25 L 109.50 87.50 L 109.25 111.25 L 105.50 108.50 L 103.00 105.50 L 103.25 93.75 L 105.25 90.25 Z" fill="#FFFFFF" fill-rule="evenodd"/>
  <path d="M 255.00 41.75 L 252.75 48.00 L 251.00 49.50 L 247.25 50.75 L 247.00 51.75 L 250.00 52.25 L 251.75 53.25 L 253.50 55.25 L 255.00 59.25 L 255.75 59.25 L 256.25 56.00 L 257.25 54.25 L 259.25 52.50 L 262.50 52.00 L 263.00 51.25 L 257.50 48.00 L 256.25 45.75 L 256.00 42.00 Z" fill="#FFFFFF" fill-rule="evenodd"/>
  <path d="M 30.00 41.50 L 27.75 48.00 L 26.50 49.25 L 24.50 49.75 L 22.00 51.50 L 26.75 53.25 L 28.50 55.50 L 30.00 60.25 L 30.75 60.25 L 31.25 56.00 L 32.00 54.75 L 34.50 52.50 L 37.50 52.00 L 38.00 51.25 L 34.00 49.50 L 32.25 48.00 L 31.25 46.25 L 31.00 42.00 Z" fill="#FFFFFF" fill-rule="evenodd"/>
  <path d="M 42.25 13.50 L 40.75 17.75 L 40.50 22.25 L 38.75 25.25 L 36.00 27.50 L 28.75 28.75 L 28.50 29.75 L 33.50 31.25 L 35.50 31.25 L 39.25 34.00 L 40.50 36.50 L 41.75 44.00 L 42.75 44.25 L 44.25 35.50 L 45.50 33.50 L 49.00 31.25 L 52.25 31.00 L 55.00 30.00 L 55.50 29.25 L 48.50 27.50 L 45.00 24.75 L 44.25 23.50 L 43.25 14.75 Z" fill="#FFFFFF" fill-rule="evenodd"/>
  <path d="M 79.50 13.00 L 78.00 14.25 L 75.50 20.50 L 70.75 27.25 L 65.75 32.50 L 51.00 44.75 L 43.50 52.00 L 36.75 60.75 L 31.25 71.25 L 28.75 74.75 L 24.75 78.75 L 19.50 82.00 L 19.50 82.75 L 22.50 84.25 L 26.50 89.00 L 31.75 106.25 L 36.75 115.50 L 41.50 121.25 L 51.50 131.50 L 55.00 137.25 L 56.50 137.25 L 61.75 131.25 L 62.00 130.00 L 51.25 116.50 L 52.25 116.50 L 56.00 119.00 L 64.00 126.25 L 66.25 125.25 L 73.00 119.00 L 73.00 117.75 L 68.25 113.75 L 66.25 110.25 L 66.25 60.75 L 67.25 60.00 L 69.50 60.25 L 78.00 66.75 L 86.25 71.25 L 91.25 71.75 L 97.00 70.25 L 100.50 68.25 L 105.00 64.00 L 109.00 57.75 L 109.00 56.00 L 108.25 55.75 L 103.25 61.25 L 99.25 63.50 L 92.50 64.00 L 89.50 63.50 L 87.25 62.25 L 83.50 58.50 L 81.50 53.50 L 82.25 47.50 L 85.75 40.50 L 84.75 40.00 L 54.00 65.75 L 52.75 67.25 L 53.75 72.50 L 53.50 112.00 L 50.75 115.50 L 48.00 113.00 L 45.25 108.00 L 43.25 102.25 L 41.25 91.25 L 42.25 79.50 L 44.25 72.25 L 47.50 65.50 L 50.25 61.50 L 68.00 41.50 L 73.00 34.50 L 75.25 30.50 L 78.25 22.75 L 80.00 15.25 Z" fill="#FFFFFF" fill-rule="evenodd"/>
  <path d="M 206.50 12.75 L 205.50 13.75 L 205.50 16.75 L 206.50 19.00 L 206.50 21.00 L 208.50 27.25 L 211.50 33.25 L 215.75 39.50 L 234.75 60.50 L 240.50 70.50 L 243.50 80.00 L 243.50 97.50 L 242.50 102.00 L 239.50 109.50 L 234.50 117.75 L 232.75 119.50 L 231.25 114.25 L 228.25 107.25 L 222.25 97.25 L 222.25 96.00 L 231.25 86.25 L 232.00 84.75 L 232.00 67.50 L 229.25 64.25 L 200.75 39.50 L 199.25 39.25 L 199.25 40.00 L 203.50 49.50 L 203.50 54.00 L 201.25 58.75 L 197.50 62.50 L 195.50 63.50 L 192.25 64.00 L 186.50 63.50 L 180.75 60.00 L 178.00 57.00 L 176.25 56.75 L 176.75 59.00 L 181.75 65.75 L 185.75 69.00 L 190.75 71.25 L 196.75 71.25 L 200.25 70.00 L 204.25 67.50 L 213.00 59.50 L 213.75 59.50 L 218.50 66.25 L 220.50 75.25 L 220.50 91.00 L 219.50 91.50 L 210.25 84.25 L 210.25 71.75 L 211.25 69.75 L 210.75 67.50 L 205.25 71.50 L 196.50 75.00 L 198.50 78.00 L 198.75 80.75 L 198.50 127.25 L 194.25 134.25 L 182.00 148.00 L 182.25 149.00 L 184.25 148.25 L 199.25 135.25 L 212.75 121.50 L 210.25 119.25 L 210.00 92.75 L 210.50 92.25 L 214.50 100.75 L 216.50 107.75 L 217.75 116.75 L 218.50 118.50 L 218.75 126.00 L 220.50 129.25 L 228.25 137.75 L 229.50 137.75 L 232.25 133.25 L 244.75 120.00 L 249.00 114.25 L 253.00 106.75 L 258.25 89.75 L 260.50 86.00 L 263.25 83.50 L 264.75 83.00 L 265.50 81.75 L 265.00 80.75 L 260.00 78.25 L 256.25 74.75 L 253.25 70.50 L 247.25 59.25 L 239.25 49.50 L 220.00 32.75 L 214.25 27.00 L 209.25 19.75 Z" fill="#FFFFFF" fill-rule="evenodd"/>
  <path d="M 243.25 11.50 L 241.75 15.00 L 241.50 21.25 L 239.50 25.25 L 236.75 27.50 L 229.75 28.75 L 229.25 29.50 L 233.50 31.00 L 236.50 31.25 L 239.50 33.25 L 241.50 37.50 L 241.75 41.75 L 243.50 44.00 L 244.25 42.00 L 244.25 37.50 L 246.00 33.75 L 249.75 31.25 L 253.00 31.00 L 255.50 30.25 L 256.50 29.25 L 249.25 27.50 L 245.25 24.00 L 244.25 20.25 L 244.25 13.75 Z" fill="#FFFFFF" fill-rule="evenodd"/>
</svg>