<svg width="112" height="112" viewBox="0 0 112 112" fill="none" xmlns="http://www.w3.org/2000/svg">
<g clip-path="url(#clip0)">
<path d="M98.1648 13.8353H87.6992L83.3412 16.0142L78.9833 13.8353H58.4707L56.0001 15.0706L47.7648 31.8286L56.0001 45.4959L83.3412 66.0471L80.8707 83.3412H70.9883L64.5837 75.8151L63.2629 70.451L58.1791 68.289L56.0001 65.7285L51.0589 80.0406L56.0001 98.1647L60.358 95.9858L64.716 98.1647H98.1648V64.7159L95.9859 60.358L98.1648 56V13.8353ZM83.3412 50.8941L61.1059 28.6588H75.9295L83.3412 36.0706V50.8941Z" fill="#DDDDDD"/>
<path d="M28.6589 33.6L33.6 28.6588L56 45.4959V15.0706L53.5294 16.3059H39.8724L34.9312 13.8353H13.8353V53.5294L16.3059 58.4706V72.1277L13.8353 77.0688V98.1647H56V65.7285L28.6589 33.6ZM36.0706 83.3412L28.6589 75.9294V61.1059L50.8941 83.3412H36.0706Z" fill="#DDDDDD"/>
</g>
<defs>
<clipPath id="clip0">
<rect width="84.3294" height="84.3294" fill="white" transform="translate(13.8353 13.8353)"/>
</clipPath>
</defs>
</svg>
