<svg xmlns="http://www.w3.org/2000/svg" viewBox="0 0 240 240" width="240" height="240">
<path d="M 222 61 L 218 60 L 175 70 L 164 75 L 154 83 L 151 95 L 157 104 L 166 107 L 186 108 L 184 118 L 170 135 L 166 135 L 122 99 L 110 86 L 111 80 L 107 80 L 104 84 L 88 138 L 71 129 L 33 129 L 23 125 L 23 122 L 29 116 L 43 111 L 57 112 L 75 121 L 69 101 L 38 104 L 22 110 L 9 124 L 9 129 L 15 137 L 23 141 L 67 140 L 76 146 L 77 151 L 65 163 L 47 170 L 21 168 L 9 163 L 3 157 L 9 180 L 54 176 L 80 164 L 99 160 L 101 157 L 97 154 L 97 148 L 101 139 L 130 131 L 138 132 L 148 141 L 147 143 L 135 143 L 126 140 L 126 143 L 133 148 L 144 151 L 163 151 L 175 147 L 193 130 L 197 122 L 199 107 L 196 100 L 181 101 L 171 97 L 167 92 L 167 88 L 179 77 L 197 72 L 203 76 L 218 124 L 215 132 L 239 128 L 234 119 L 218 68 Z M 102 126 L 104 113 L 107 108 L 110 108 L 124 119 L 124 122 L 119 125 Z" fill="#000000" fill-rule="evenodd" stroke="#ffffff" stroke-width="2.2" vector-effect="non-scaling-stroke"/>
</svg>