<svg xmlns="http://www.w3.org/2000/svg" width="1787" height="1787" viewBox="0 0 1787 1787">
  <path d="M 1170.00 2.00 L 1141.00 501.00 L 1014.00 403.00 L 877.00 355.00 L 720.00 354.00 L 563.00 404.00 L 365.00 536.00 L 476.00 520.00 L 608.00 559.00 L 428.00 614.00 L 291.00 701.00 L 197.00 814.00 L 137.00 970.00 L 122.00 1158.00 L 147.00 1354.00 L 192.00 1232.00 L 280.00 1153.00 L 324.00 1367.00 L 437.00 1557.00 L 606.00 1700.00 L 798.00 1773.00 L 964.00 1786.00 L 793.00 1712.00 L 662.00 1604.00 L 570.00 1466.00 L 523.00 1292.00 L 530.00 1161.00 L 568.00 1054.00 L 639.00 962.00 L 729.00 903.00 L 839.00 873.00 L 953.00 884.00 L 819.00 911.00 L 727.00 1003.00 L 671.00 995.00 L 720.00 1027.00 L 703.00 1152.00 L 727.00 1253.00 L 605.00 1277.00 L 810.00 1312.00 L 897.00 1441.00 L 757.00 1524.00 L 982.00 1485.00 L 1060.00 1624.00 L 1178.00 1741.00 L 1286.00 1686.00 L 1134.00 1552.00 L 1024.00 1370.00 L 966.00 1403.00 L 904.00 1332.00 L 849.00 1233.00 L 779.00 1245.00 L 757.00 1143.00 L 766.00 1011.00 L 821.00 950.00 L 898.00 911.00 L 993.00 905.00 L 954.00 956.00 L 878.00 972.00 L 909.00 1025.00 L 987.00 1051.00 L 941.00 1084.00 L 880.00 1092.00 L 888.00 1115.00 L 953.00 1182.00 L 1166.00 1247.00 L 1246.00 1299.00 L 1291.00 1385.00 L 1309.00 1539.00 L 1355.00 1634.00 L 1388.00 1576.00 L 1435.00 1537.00 L 1554.00 1519.00 L 1587.00 1424.00 L 1667.00 1369.00 L 1642.00 1273.00 L 1557.00 1231.00 L 1510.00 1155.00 L 1511.00 1062.00 L 1552.00 1068.00 L 1620.00 986.00 L 1384.00 191.00 L 1349.00 609.00 Z M 1365.00 900.00 L 1367.00 902.00 L 1371.00 904.00 L 1383.00 916.00 L 1383.00 917.00 L 1386.00 920.00 L 1390.00 928.00 L 1393.00 932.00 L 1393.00 934.00 L 1396.00 939.00 L 1396.00 941.00 L 1398.00 944.00 L 1399.00 949.00 L 1401.00 952.00 L 1401.00 955.00 L 1402.00 956.00 L 1402.00 958.00 L 1404.00 962.00 L 1404.00 965.00 L 1405.00 966.00 L 1405.00 969.00 L 1406.00 970.00 L 1406.00 973.00 L 1407.00 974.00 L 1407.00 977.00 L 1408.00 978.00 L 1408.00 982.00 L 1409.00 983.00 L 1409.00 986.00 L 1410.00 987.00 L 1410.00 991.00 L 1411.00 992.00 L 1411.00 997.00 L 1412.00 998.00 L 1412.00 1002.00 L 1413.00 1003.00 L 1413.00 1008.00 L 1414.00 1009.00 L 1414.00 1014.00 L 1415.00 1015.00 L 1415.00 1019.00 L 1416.00 1020.00 L 1416.00 1026.00 L 1417.00 1027.00 L 1417.00 1032.00 L 1418.00 1033.00 L 1418.00 1038.00 L 1419.00 1039.00 L 1419.00 1044.00 L 1420.00 1045.00 L 1420.00 1050.00 L 1421.00 1051.00 L 1421.00 1056.00 L 1422.00 1057.00 L 1422.00 1062.00 L 1423.00 1063.00 L 1423.00 1068.00 L 1424.00 1069.00 L 1424.00 1073.00 L 1425.00 1074.00 L 1425.00 1078.00 L 1426.00 1079.00 L 1427.00 1088.00 L 1428.00 1089.00 L 1428.00 1092.00 L 1429.00 1093.00 L 1429.00 1096.00 L 1430.00 1097.00 L 1430.00 1100.00 L 1431.00 1101.00 L 1432.00 1108.00 L 1433.00 1109.00 L 1433.00 1111.00 L 1434.00 1112.00 L 1434.00 1114.00 L 1435.00 1115.00 L 1435.00 1117.00 L 1436.00 1118.00 L 1436.00 1120.00 L 1437.00 1121.00 L 1437.00 1123.00 L 1439.00 1127.00 L 1438.00 1129.00 L 1427.00 1124.00 L 1425.00 1122.00 L 1421.00 1120.00 L 1418.00 1117.00 L 1417.00 1117.00 L 1403.00 1103.00 L 1403.00 1102.00 L 1400.00 1099.00 L 1400.00 1098.00 L 1395.00 1092.00 L 1394.00 1089.00 L 1392.00 1087.00 L 1387.00 1077.00 L 1385.00 1076.00 L 1380.00 1076.00 L 1379.00 1075.00 L 1376.00 1075.00 L 1375.00 1074.00 L 1370.00 1073.00 L 1367.00 1071.00 L 1365.00 1071.00 L 1359.00 1068.00 L 1357.00 1066.00 L 1353.00 1064.00 L 1344.00 1056.00 L 1344.00 1055.00 L 1341.00 1052.00 L 1338.00 1046.00 L 1338.00 1044.00 L 1337.00 1043.00 L 1337.00 1038.00 L 1336.00 1037.00 L 1336.00 1025.00 L 1337.00 1024.00 L 1337.00 1016.00 L 1338.00 1015.00 L 1338.00 1011.00 L 1339.00 1010.00 L 1339.00 1008.00 L 1340.00 1007.00 L 1341.00 1002.00 L 1343.00 999.00 L 1343.00 997.00 L 1356.00 971.00 L 1356.00 969.00 L 1357.00 968.00 L 1357.00 966.00 L 1359.00 962.00 L 1360.00 955.00 L 1361.00 954.00 L 1361.00 950.00 L 1362.00 949.00 L 1362.00 944.00 L 1363.00 943.00 L 1363.00 935.00 L 1364.00 934.00 L 1364.00 901.00 Z" fill="#FFFFFF" fill-rule="evenodd"/>
</svg>
