<svg xmlns="http://www.w3.org/2000/svg" width="450" height="450" viewBox="0 0 450 450">
  <path d="M 108.00 347.00 L 104.00 351.00 L 104.00 352.00 L 97.00 359.00 L 97.00 360.00 L 92.00 365.00 L 92.00 367.00 L 93.00 368.00 L 94.00 368.00 L 100.00 374.00 L 101.00 374.00 L 104.00 377.00 L 105.00 377.00 L 107.00 379.00 L 108.00 379.00 L 110.00 381.00 L 111.00 381.00 L 114.00 384.00 L 117.00 385.00 L 119.00 387.00 L 121.00 387.00 L 121.00 385.00 L 120.00 384.00 L 120.00 382.00 L 119.00 381.00 L 119.00 379.00 L 118.00 378.00 L 118.00 376.00 L 117.00 375.00 L 117.00 373.00 L 116.00 372.00 L 116.00 370.00 L 115.00 369.00 L 115.00 367.00 L 114.00 366.00 L 114.00 364.00 L 113.00 363.00 L 113.00 360.00 L 112.00 359.00 L 112.00 357.00 L 111.00 356.00 L 111.00 353.00 L 110.00 352.00 L 110.00 349.00 L 109.00 348.00 L 109.00 347.00 Z M 101.00 279.00 L 100.00 279.00 L 97.00 281.00 L 95.00 281.00 L 94.00 282.00 L 93.00 282.00 L 92.00 283.00 L 91.00 283.00 L 86.00 286.00 L 84.00 286.00 L 79.00 289.00 L 77.00 289.00 L 72.00 292.00 L 70.00 292.00 L 69.00 293.00 L 67.00 293.00 L 64.00 295.00 L 62.00 295.00 L 61.00 296.00 L 59.00 296.00 L 58.00 297.00 L 55.00 298.00 L 55.00 303.00 L 56.00 304.00 L 56.00 307.00 L 57.00 308.00 L 57.00 310.00 L 58.00 311.00 L 58.00 313.00 L 59.00 314.00 L 59.00 316.00 L 60.00 317.00 L 60.00 319.00 L 61.00 320.00 L 61.00 322.00 L 64.00 327.00 L 64.00 329.00 L 65.00 330.00 L 65.00 331.00 L 66.00 332.00 L 67.00 335.00 L 69.00 335.00 L 70.00 334.00 L 71.00 334.00 L 73.00 332.00 L 74.00 332.00 L 76.00 330.00 L 77.00 330.00 L 79.00 328.00 L 80.00 328.00 L 82.00 326.00 L 83.00 326.00 L 86.00 323.00 L 87.00 323.00 L 89.00 321.00 L 90.00 321.00 L 93.00 318.00 L 94.00 318.00 L 101.00 312.00 L 102.00 312.00 L 102.00 301.00 L 101.00 300.00 Z M 335.00 267.00 L 335.00 268.00 L 337.00 271.00 L 337.00 273.00 L 339.00 276.00 L 339.00 278.00 L 340.00 279.00 L 340.00 280.00 L 346.00 280.00 L 347.00 279.00 L 355.00 279.00 L 355.00 278.00 L 354.00 278.00 L 353.00 277.00 L 351.00 277.00 L 348.00 275.00 L 346.00 275.00 L 345.00 274.00 L 344.00 274.00 L 340.00 270.00 L 339.00 270.00 L 336.00 267.00 Z M 46.00 222.00 L 46.00 227.00 L 47.00 228.00 L 47.00 248.00 L 48.00 249.00 L 48.00 260.00 L 55.00 260.00 L 56.00 259.00 L 62.00 259.00 L 63.00 258.00 L 68.00 258.00 L 69.00 257.00 L 74.00 257.00 L 75.00 256.00 L 80.00 256.00 L 81.00 255.00 L 85.00 255.00 L 86.00 254.00 L 89.00 254.00 L 90.00 253.00 L 94.00 253.00 L 95.00 252.00 L 98.00 252.00 L 99.00 251.00 L 102.00 251.00 L 103.00 250.00 L 104.00 250.00 L 104.00 245.00 L 105.00 244.00 L 105.00 240.00 L 106.00 239.00 L 106.00 236.00 L 107.00 235.00 L 107.00 232.00 L 108.00 231.00 L 108.00 228.00 L 109.00 227.00 L 109.00 224.00 L 71.00 224.00 L 70.00 223.00 L 57.00 223.00 L 56.00 222.00 Z M 285.00 169.00 L 285.00 172.00 L 287.00 175.00 L 287.00 177.00 L 288.00 178.00 L 288.00 179.00 L 289.00 180.00 L 289.00 181.00 L 290.00 182.00 L 291.00 185.00 L 295.00 189.00 L 305.00 189.00 L 306.00 188.00 L 307.00 188.00 L 306.00 185.00 L 301.00 180.00 L 301.00 179.00 L 300.00 179.00 L 298.00 177.00 L 297.00 177.00 L 295.00 175.00 L 294.00 175.00 L 292.00 173.00 L 291.00 173.00 L 289.00 171.00 L 288.00 171.00 L 286.00 169.00 Z M 46.00 133.00 L 46.00 181.00 L 47.00 181.00 L 48.00 182.00 L 50.00 182.00 L 53.00 184.00 L 55.00 184.00 L 56.00 185.00 L 58.00 185.00 L 59.00 186.00 L 61.00 186.00 L 62.00 187.00 L 64.00 187.00 L 65.00 188.00 L 67.00 188.00 L 68.00 189.00 L 71.00 189.00 L 72.00 190.00 L 74.00 190.00 L 75.00 191.00 L 78.00 191.00 L 79.00 192.00 L 81.00 192.00 L 82.00 193.00 L 86.00 193.00 L 87.00 194.00 L 90.00 194.00 L 91.00 195.00 L 93.00 195.00 L 94.00 196.00 L 98.00 196.00 L 99.00 197.00 L 103.00 197.00 L 104.00 198.00 L 107.00 198.00 L 108.00 199.00 L 112.00 199.00 L 113.00 200.00 L 119.00 200.00 L 120.00 199.00 L 120.00 198.00 L 121.00 197.00 L 121.00 196.00 L 122.00 195.00 L 122.00 194.00 L 123.00 193.00 L 123.00 192.00 L 124.00 191.00 L 125.00 188.00 L 127.00 186.00 L 127.00 185.00 L 129.00 183.00 L 129.00 182.00 L 130.00 181.00 L 130.00 178.00 L 128.00 178.00 L 127.00 177.00 L 126.00 177.00 L 125.00 176.00 L 123.00 176.00 L 122.00 175.00 L 121.00 175.00 L 116.00 172.00 L 114.00 172.00 L 113.00 171.00 L 112.00 171.00 L 111.00 170.00 L 110.00 170.00 L 109.00 169.00 L 108.00 169.00 L 107.00 168.00 L 106.00 168.00 L 105.00 167.00 L 104.00 167.00 L 103.00 166.00 L 102.00 166.00 L 101.00 165.00 L 100.00 165.00 L 99.00 164.00 L 98.00 164.00 L 97.00 163.00 L 96.00 163.00 L 95.00 162.00 L 94.00 162.00 L 93.00 161.00 L 92.00 161.00 L 91.00 160.00 L 90.00 160.00 L 89.00 159.00 L 86.00 158.00 L 84.00 156.00 L 83.00 156.00 L 82.00 155.00 L 81.00 155.00 L 80.00 154.00 L 77.00 153.00 L 75.00 151.00 L 72.00 150.00 L 67.00 146.00 L 64.00 145.00 L 62.00 143.00 L 61.00 143.00 L 59.00 141.00 L 58.00 141.00 L 56.00 139.00 L 55.00 139.00 L 52.00 136.00 L 51.00 136.00 L 49.00 134.00 Z M 65.00 88.00 L 65.00 89.00 L 70.00 94.00 L 70.00 95.00 L 77.00 102.00 L 77.00 103.00 L 95.00 121.00 L 96.00 121.00 L 104.00 129.00 L 105.00 129.00 L 110.00 134.00 L 111.00 134.00 L 116.00 139.00 L 117.00 139.00 L 121.00 143.00 L 122.00 143.00 L 125.00 146.00 L 126.00 146.00 L 129.00 149.00 L 130.00 149.00 L 133.00 152.00 L 134.00 152.00 L 136.00 154.00 L 137.00 154.00 L 140.00 157.00 L 141.00 157.00 L 143.00 159.00 L 146.00 160.00 L 151.00 155.00 L 151.00 154.00 L 154.00 151.00 L 155.00 151.00 L 162.00 144.00 L 162.00 142.00 L 158.00 138.00 L 158.00 137.00 L 148.00 127.00 L 148.00 126.00 L 142.00 120.00 L 142.00 119.00 L 137.00 114.00 L 137.00 113.00 L 134.00 110.00 L 134.00 109.00 L 130.00 105.00 L 130.00 104.00 L 124.00 97.00 L 124.00 96.00 L 122.00 94.00 L 122.00 93.00 L 120.00 91.00 L 120.00 90.00 L 118.00 88.00 L 118.00 87.00 L 116.00 85.00 L 116.00 84.00 L 114.00 82.00 L 114.00 81.00 L 110.00 76.00 L 109.00 73.00 L 107.00 73.00 L 106.00 74.00 L 104.00 74.00 L 101.00 76.00 L 99.00 76.00 L 98.00 77.00 L 96.00 77.00 L 95.00 78.00 L 93.00 78.00 L 92.00 79.00 L 90.00 79.00 L 89.00 80.00 L 87.00 80.00 L 86.00 81.00 L 84.00 81.00 L 83.00 82.00 L 81.00 82.00 L 80.00 83.00 L 78.00 83.00 L 77.00 84.00 L 75.00 84.00 L 74.00 85.00 L 72.00 85.00 L 69.00 87.00 L 67.00 87.00 L 66.00 88.00 Z M 186.00 46.00 L 185.00 46.00 L 182.00 48.00 L 179.00 48.00 L 176.00 50.00 L 174.00 50.00 L 173.00 51.00 L 171.00 51.00 L 170.00 52.00 L 168.00 52.00 L 167.00 53.00 L 165.00 53.00 L 164.00 54.00 L 162.00 54.00 L 161.00 55.00 L 159.00 55.00 L 158.00 56.00 L 156.00 56.00 L 155.00 57.00 L 153.00 57.00 L 150.00 59.00 L 148.00 59.00 L 148.00 61.00 L 149.00 62.00 L 149.00 64.00 L 150.00 65.00 L 150.00 66.00 L 151.00 67.00 L 151.00 69.00 L 154.00 74.00 L 154.00 76.00 L 155.00 77.00 L 155.00 78.00 L 156.00 79.00 L 156.00 80.00 L 157.00 81.00 L 157.00 82.00 L 160.00 87.00 L 160.00 89.00 L 161.00 90.00 L 161.00 91.00 L 163.00 93.00 L 163.00 94.00 L 164.00 95.00 L 164.00 96.00 L 165.00 97.00 L 165.00 98.00 L 166.00 99.00 L 166.00 100.00 L 167.00 101.00 L 167.00 102.00 L 168.00 103.00 L 168.00 104.00 L 169.00 105.00 L 170.00 108.00 L 172.00 110.00 L 172.00 111.00 L 173.00 112.00 L 174.00 115.00 L 176.00 117.00 L 176.00 118.00 L 177.00 119.00 L 178.00 122.00 L 180.00 124.00 L 180.00 125.00 L 182.00 127.00 L 182.00 128.00 L 184.00 128.00 L 189.00 124.00 L 190.00 124.00 L 191.00 123.00 L 192.00 123.00 L 193.00 122.00 L 194.00 122.00 L 195.00 121.00 L 196.00 121.00 L 197.00 120.00 L 198.00 120.00 L 199.00 119.00 L 200.00 119.00 L 205.00 116.00 L 205.00 113.00 L 203.00 110.00 L 203.00 108.00 L 202.00 107.00 L 202.00 105.00 L 201.00 104.00 L 201.00 102.00 L 200.00 101.00 L 200.00 99.00 L 199.00 98.00 L 199.00 96.00 L 198.00 95.00 L 198.00 92.00 L 197.00 91.00 L 197.00 89.00 L 196.00 88.00 L 196.00 85.00 L 195.00 84.00 L 195.00 82.00 L 194.00 81.00 L 194.00 78.00 L 193.00 77.00 L 193.00 74.00 L 192.00 73.00 L 192.00 70.00 L 191.00 69.00 L 191.00 66.00 L 190.00 65.00 L 190.00 62.00 L 189.00 61.00 L 189.00 57.00 L 188.00 56.00 L 188.00 51.00 L 187.00 50.00 L 187.00 47.00 Z M 232.00 38.00 L 226.00 63.00 L 226.00 90.00 L 230.00 109.00 L 271.00 67.00 L 274.00 70.00 L 279.00 84.00 L 278.00 98.00 L 271.00 111.00 L 262.00 121.00 L 324.00 164.00 L 322.00 176.00 L 323.00 186.00 L 370.00 277.00 L 347.00 304.00 L 314.00 286.00 L 328.00 311.00 L 307.00 312.00 L 304.00 308.00 L 301.00 296.00 L 288.00 268.00 L 256.00 255.00 L 249.00 249.00 L 240.00 228.00 L 237.00 209.00 L 235.00 222.00 L 235.00 250.00 L 237.00 261.00 L 243.00 276.00 L 256.00 291.00 L 266.00 296.00 L 271.00 301.00 L 330.00 377.00 L 335.00 379.00 L 358.00 359.00 L 372.00 340.00 L 382.00 319.00 L 389.00 294.00 L 394.00 259.00 L 396.00 221.00 L 396.00 95.00 Z" fill="#FFFFFF" fill-rule="evenodd"/>
</svg>
