<svg xmlns="http://www.w3.org/2000/svg" width="500" height="499" viewBox="0 0 500 499">
  <path d="M 4.00 37.00 L 2.00 42.00 L 91.00 196.00 L 134.00 166.00 L 137.00 166.00 L 108.00 218.00 L 107.00 224.00 L 249.00 469.00 L 252.00 469.00 L 342.00 315.00 L 342.00 312.00 L 293.00 288.00 L 359.00 286.00 L 497.00 47.00 L 499.00 38.00 L 320.00 37.00 L 322.00 89.00 L 291.00 37.00 Z M 188.00 222.00 L 190.00 224.00 L 193.00 225.00 L 196.00 228.00 L 197.00 228.00 L 199.00 230.00 L 200.00 230.00 L 202.00 232.00 L 203.00 232.00 L 205.00 234.00 L 206.00 234.00 L 208.00 236.00 L 209.00 236.00 L 211.00 238.00 L 212.00 238.00 L 214.00 240.00 L 215.00 240.00 L 217.00 242.00 L 218.00 242.00 L 220.00 244.00 L 221.00 244.00 L 224.00 247.00 L 227.00 248.00 L 230.00 251.00 L 233.00 252.00 L 236.00 255.00 L 237.00 255.00 L 239.00 257.00 L 240.00 257.00 L 242.00 259.00 L 243.00 259.00 L 245.00 261.00 L 246.00 261.00 L 248.00 263.00 L 249.00 263.00 L 251.00 265.00 L 252.00 265.00 L 254.00 267.00 L 255.00 267.00 L 257.00 269.00 L 258.00 269.00 L 260.00 271.00 L 261.00 271.00 L 263.00 273.00 L 264.00 273.00 L 266.00 275.00 L 267.00 275.00 L 269.00 277.00 L 270.00 277.00 L 272.00 279.00 L 273.00 279.00 L 276.00 282.00 L 279.00 283.00 L 282.00 286.00 L 281.00 287.00 L 281.00 288.00 L 280.00 289.00 L 279.00 292.00 L 275.00 297.00 L 275.00 298.00 L 274.00 299.00 L 273.00 302.00 L 271.00 304.00 L 270.00 307.00 L 268.00 309.00 L 268.00 310.00 L 267.00 311.00 L 266.00 314.00 L 264.00 316.00 L 263.00 319.00 L 261.00 321.00 L 260.00 324.00 L 258.00 326.00 L 258.00 327.00 L 257.00 328.00 L 256.00 331.00 L 254.00 333.00 L 253.00 336.00 L 251.00 338.00 L 248.00 335.00 L 248.00 334.00 L 247.00 333.00 L 247.00 332.00 L 246.00 331.00 L 246.00 330.00 L 245.00 329.00 L 244.00 326.00 L 242.00 324.00 L 242.00 323.00 L 241.00 322.00 L 240.00 319.00 L 238.00 317.00 L 238.00 316.00 L 237.00 315.00 L 237.00 314.00 L 236.00 313.00 L 236.00 312.00 L 235.00 311.00 L 234.00 308.00 L 232.00 306.00 L 232.00 305.00 L 231.00 304.00 L 231.00 303.00 L 230.00 302.00 L 230.00 301.00 L 229.00 300.00 L 228.00 297.00 L 226.00 295.00 L 226.00 294.00 L 225.00 293.00 L 225.00 292.00 L 224.00 291.00 L 223.00 288.00 L 221.00 286.00 L 221.00 285.00 L 220.00 284.00 L 220.00 283.00 L 219.00 282.00 L 218.00 279.00 L 216.00 277.00 L 216.00 276.00 L 215.00 275.00 L 215.00 274.00 L 214.00 273.00 L 213.00 270.00 L 211.00 268.00 L 211.00 267.00 L 210.00 266.00 L 210.00 265.00 L 209.00 264.00 L 208.00 261.00 L 206.00 259.00 L 206.00 258.00 L 205.00 257.00 L 205.00 256.00 L 204.00 255.00 L 204.00 254.00 L 203.00 253.00 L 202.00 250.00 L 200.00 248.00 L 200.00 247.00 L 199.00 246.00 L 199.00 245.00 L 198.00 244.00 L 197.00 241.00 L 195.00 239.00 L 195.00 238.00 L 194.00 237.00 L 194.00 236.00 L 193.00 235.00 L 192.00 232.00 L 190.00 230.00 L 190.00 229.00 L 187.00 224.00 L 187.00 223.00 Z M 186.00 217.00 L 188.00 215.00 L 188.00 214.00 L 189.00 213.00 L 190.00 210.00 L 192.00 208.00 L 192.00 207.00 L 193.00 206.00 L 194.00 203.00 L 196.00 201.00 L 197.00 198.00 L 199.00 196.00 L 200.00 193.00 L 202.00 191.00 L 202.00 190.00 L 203.00 189.00 L 204.00 186.00 L 206.00 184.00 L 207.00 181.00 L 209.00 179.00 L 209.00 178.00 L 210.00 177.00 L 211.00 174.00 L 213.00 172.00 L 214.00 169.00 L 216.00 167.00 L 217.00 164.00 L 219.00 162.00 L 219.00 161.00 L 220.00 160.00 L 221.00 157.00 L 223.00 155.00 L 224.00 152.00 L 226.00 150.00 L 226.00 149.00 L 227.00 148.00 L 228.00 145.00 L 230.00 143.00 L 231.00 140.00 L 233.00 138.00 L 234.00 135.00 L 236.00 133.00 L 236.00 132.00 L 237.00 131.00 L 238.00 128.00 L 240.00 126.00 L 240.00 125.00 L 241.00 124.00 L 242.00 121.00 L 244.00 119.00 L 245.00 116.00 L 247.00 114.00 L 247.00 113.00 L 248.00 112.00 L 248.00 111.00 L 250.00 109.00 L 251.00 106.00 L 252.00 105.00 L 253.00 105.00 L 255.00 107.00 L 255.00 108.00 L 256.00 109.00 L 257.00 112.00 L 259.00 114.00 L 260.00 117.00 L 262.00 119.00 L 262.00 120.00 L 263.00 121.00 L 264.00 124.00 L 266.00 126.00 L 266.00 127.00 L 267.00 128.00 L 268.00 131.00 L 270.00 133.00 L 271.00 136.00 L 273.00 138.00 L 273.00 139.00 L 274.00 140.00 L 275.00 143.00 L 277.00 145.00 L 277.00 146.00 L 278.00 147.00 L 279.00 150.00 L 281.00 152.00 L 281.00 153.00 L 282.00 154.00 L 283.00 157.00 L 285.00 159.00 L 286.00 162.00 L 288.00 164.00 L 288.00 165.00 L 289.00 166.00 L 290.00 169.00 L 292.00 171.00 L 292.00 172.00 L 293.00 173.00 L 294.00 176.00 L 296.00 178.00 L 296.00 179.00 L 297.00 180.00 L 298.00 183.00 L 300.00 185.00 L 300.00 186.00 L 301.00 187.00 L 302.00 190.00 L 304.00 192.00 L 305.00 195.00 L 307.00 197.00 L 308.00 200.00 L 310.00 202.00 L 310.00 203.00 L 311.00 204.00 L 312.00 207.00 L 314.00 209.00 L 314.00 210.00 L 315.00 211.00 L 316.00 214.00 L 318.00 216.00 L 318.00 217.00 L 319.00 218.00 L 318.00 219.00 L 187.00 219.00 L 186.00 218.00 Z M 115.00 105.00 L 115.00 104.00 L 116.00 103.00 L 249.00 103.00 L 250.00 104.00 L 249.00 105.00 L 248.00 105.00 L 247.00 106.00 L 246.00 106.00 L 245.00 107.00 L 244.00 107.00 L 243.00 108.00 L 242.00 108.00 L 241.00 109.00 L 240.00 109.00 L 239.00 110.00 L 238.00 110.00 L 233.00 113.00 L 231.00 113.00 L 230.00 114.00 L 229.00 114.00 L 227.00 116.00 L 225.00 116.00 L 224.00 117.00 L 223.00 117.00 L 222.00 118.00 L 221.00 118.00 L 220.00 119.00 L 219.00 119.00 L 218.00 120.00 L 217.00 120.00 L 216.00 121.00 L 215.00 121.00 L 214.00 122.00 L 213.00 122.00 L 212.00 123.00 L 211.00 123.00 L 210.00 124.00 L 209.00 124.00 L 208.00 125.00 L 207.00 125.00 L 206.00 126.00 L 205.00 126.00 L 204.00 127.00 L 203.00 127.00 L 198.00 130.00 L 196.00 130.00 L 195.00 131.00 L 194.00 131.00 L 193.00 132.00 L 192.00 132.00 L 191.00 133.00 L 190.00 133.00 L 189.00 134.00 L 188.00 134.00 L 187.00 135.00 L 186.00 135.00 L 185.00 136.00 L 184.00 136.00 L 183.00 137.00 L 182.00 137.00 L 181.00 138.00 L 180.00 138.00 L 179.00 139.00 L 178.00 139.00 L 177.00 140.00 L 176.00 140.00 L 171.00 143.00 L 169.00 143.00 L 168.00 144.00 L 165.00 145.00 L 163.00 147.00 L 161.00 147.00 L 160.00 148.00 L 159.00 148.00 L 158.00 149.00 L 157.00 149.00 L 156.00 150.00 L 155.00 150.00 L 154.00 151.00 L 153.00 151.00 L 152.00 152.00 L 151.00 152.00 L 150.00 153.00 L 149.00 153.00 L 144.00 156.00 L 143.00 155.00 L 143.00 154.00 L 142.00 153.00 L 141.00 150.00 L 139.00 148.00 L 139.00 147.00 L 138.00 146.00 L 138.00 145.00 L 137.00 144.00 L 136.00 141.00 L 134.00 139.00 L 134.00 138.00 L 133.00 137.00 L 133.00 136.00 L 132.00 135.00 L 131.00 132.00 L 129.00 130.00 L 129.00 129.00 L 128.00 128.00 L 128.00 127.00 L 127.00 126.00 L 126.00 123.00 L 124.00 121.00 L 124.00 120.00 L 123.00 119.00 L 123.00 118.00 L 122.00 117.00 L 121.00 114.00 L 119.00 112.00 L 119.00 111.00 L 118.00 110.00 L 117.00 107.00 Z M 386.00 103.00 L 387.00 104.00 L 385.00 106.00 L 384.00 109.00 L 382.00 111.00 L 382.00 112.00 L 381.00 113.00 L 380.00 116.00 L 378.00 118.00 L 378.00 119.00 L 377.00 120.00 L 376.00 123.00 L 374.00 125.00 L 374.00 126.00 L 373.00 127.00 L 372.00 130.00 L 370.00 132.00 L 369.00 135.00 L 367.00 137.00 L 367.00 138.00 L 366.00 139.00 L 365.00 142.00 L 363.00 144.00 L 362.00 147.00 L 360.00 149.00 L 360.00 150.00 L 359.00 151.00 L 358.00 154.00 L 356.00 156.00 L 356.00 157.00 L 355.00 158.00 L 354.00 161.00 L 352.00 163.00 L 352.00 164.00 L 351.00 165.00 L 350.00 168.00 L 348.00 170.00 L 347.00 173.00 L 345.00 175.00 L 344.00 178.00 L 342.00 180.00 L 342.00 181.00 L 341.00 182.00 L 340.00 185.00 L 338.00 187.00 L 338.00 188.00 L 337.00 189.00 L 336.00 192.00 L 334.00 194.00 L 334.00 195.00 L 333.00 196.00 L 332.00 199.00 L 330.00 201.00 L 330.00 202.00 L 329.00 203.00 L 328.00 206.00 L 326.00 208.00 L 326.00 209.00 L 325.00 210.00 L 324.00 213.00 L 322.00 215.00 L 322.00 216.00 L 321.00 217.00 L 320.00 216.00 L 320.00 214.00 L 321.00 213.00 L 321.00 196.00 L 322.00 195.00 L 322.00 177.00 L 323.00 176.00 L 323.00 160.00 L 324.00 159.00 L 324.00 146.00 L 325.00 145.00 L 325.00 128.00 L 326.00 127.00 L 326.00 109.00 L 327.00 108.00 L 327.00 102.00 L 328.00 101.00 L 329.00 102.00 L 360.00 102.00 L 361.00 103.00 Z" fill="#FFFFFF" fill-rule="evenodd"/>
</svg>
