<svg xmlns="http://www.w3.org/2000/svg" viewBox="0 0 581 572" width="581" height="572">
  <path d="M 565 414 L 560 425 L 549 441 L 529 460 L 520 466 L 517 467 L 515 469 L 503 475 L 501 475 L 498 477 L 493 478 L 487 481 L 484 481 L 477 484 L 474 484 L 473 485 L 470 485 L 469 486 L 466 486 L 465 487 L 457 489 L 440 497 L 438 499 L 435 500 L 426 506 L 422 510 L 416 514 L 406 524 L 406 527 L 408 529 L 410 529 L 413 527 L 418 526 L 429 521 L 440 518 L 443 516 L 445 516 L 446 515 L 451 514 L 454 512 L 462 510 L 465 508 L 470 507 L 473 505 L 475 505 L 478 503 L 485 501 L 490 498 L 492 498 L 497 495 L 499 495 L 522 483 L 525 480 L 529 478 L 540 468 L 552 452 L 559 438 L 559 436 L 563 426 Z M 16 414 L 16 419 L 17 420 L 19 431 L 29 453 L 37 464 L 53 479 L 62 485 L 98 502 L 100 502 L 108 506 L 113 507 L 116 509 L 121 510 L 124 512 L 132 514 L 135 516 L 146 519 L 149 521 L 157 523 L 168 528 L 170 528 L 171 529 L 173 529 L 174 528 L 175 524 L 168 517 L 167 517 L 161 511 L 144 499 L 139 497 L 137 495 L 133 493 L 131 493 L 126 490 L 124 490 L 121 488 L 115 487 L 107 484 L 104 484 L 100 482 L 97 482 L 96 481 L 85 478 L 82 476 L 80 476 L 62 467 L 53 461 L 43 452 L 42 452 L 30 439 L 19 422 L 16 416 Z M 479 412 L 470 420 L 459 426 L 457 428 L 452 430 L 438 440 L 431 449 L 428 455 L 427 460 L 434 455 L 458 444 L 468 437 L 474 430 L 478 422 Z M 101 411 L 101 415 L 102 416 L 103 423 L 108 432 L 115 439 L 121 443 L 153 459 L 152 454 L 149 448 L 139 437 L 127 429 L 112 421 L 104 414 L 103 414 Z M 539 2 L 539 6 L 538 7 L 538 21 L 537 22 L 537 41 L 536 42 L 535 74 L 534 75 L 533 94 L 532 95 L 532 101 L 531 102 L 531 107 L 530 108 L 529 117 L 528 118 L 527 126 L 525 130 L 525 133 L 524 134 L 519 151 L 517 154 L 515 161 L 502 186 L 494 198 L 484 210 L 484 211 L 478 217 L 478 218 L 464 232 L 463 232 L 451 243 L 421 263 L 393 277 L 391 279 L 381 284 L 369 293 L 365 295 L 355 304 L 354 304 L 338 320 L 338 321 L 327 334 L 322 343 L 320 345 L 314 357 L 314 359 L 312 362 L 312 364 L 310 368 L 310 371 L 309 372 L 308 379 L 307 380 L 307 384 L 306 385 L 305 402 L 304 403 L 305 433 L 306 434 L 306 441 L 307 442 L 307 447 L 308 448 L 310 462 L 311 463 L 312 470 L 314 474 L 314 477 L 315 478 L 321 498 L 323 501 L 323 503 L 327 511 L 327 513 L 330 518 L 330 520 L 344 548 L 350 557 L 354 561 L 355 560 L 356 549 L 357 548 L 357 539 L 358 538 L 358 531 L 357 530 L 358 508 L 359 507 L 359 500 L 360 499 L 360 494 L 362 489 L 362 485 L 363 484 L 364 478 L 365 477 L 367 469 L 369 466 L 369 464 L 374 455 L 374 453 L 376 451 L 381 441 L 392 426 L 409 409 L 410 409 L 418 402 L 441 387 L 449 380 L 454 377 L 459 372 L 460 372 L 466 366 L 467 366 L 500 332 L 500 331 L 504 327 L 522 302 L 523 299 L 527 294 L 529 289 L 531 287 L 544 261 L 544 259 L 546 256 L 546 254 L 548 251 L 552 238 L 555 232 L 555 229 L 558 222 L 558 219 L 559 218 L 559 215 L 560 214 L 560 211 L 561 210 L 561 207 L 563 202 L 563 198 L 564 197 L 564 193 L 565 192 L 565 188 L 566 187 L 566 182 L 567 181 L 568 167 L 569 166 L 569 157 L 570 156 L 570 110 L 569 109 L 569 100 L 568 99 L 568 92 L 567 91 L 566 80 L 565 79 L 565 75 L 564 74 L 564 71 L 563 70 L 560 55 L 558 51 L 558 48 L 557 47 L 554 36 L 552 33 L 551 28 L 549 25 L 549 23 Z M 42 2 L 32 22 L 32 24 L 27 35 L 27 37 L 22 50 L 22 53 L 20 57 L 20 60 L 19 61 L 19 64 L 18 65 L 18 68 L 16 73 L 16 77 L 15 78 L 14 89 L 13 90 L 12 105 L 11 106 L 11 118 L 10 119 L 10 147 L 11 148 L 11 161 L 12 162 L 13 177 L 14 178 L 14 183 L 15 184 L 15 189 L 16 190 L 18 204 L 19 205 L 22 220 L 25 227 L 25 230 L 26 231 L 29 242 L 35 255 L 35 257 L 49 286 L 51 288 L 53 293 L 57 298 L 58 301 L 66 313 L 79 329 L 79 330 L 93 345 L 93 346 L 117 369 L 118 369 L 123 374 L 124 374 L 141 388 L 164 403 L 174 412 L 175 412 L 186 423 L 186 424 L 191 429 L 199 440 L 200 443 L 205 450 L 209 458 L 209 460 L 212 465 L 212 467 L 215 473 L 216 479 L 218 483 L 219 490 L 220 491 L 220 496 L 221 497 L 221 502 L 222 503 L 222 511 L 223 512 L 223 542 L 224 543 L 225 557 L 226 558 L 226 561 L 227 561 L 236 549 L 252 517 L 252 515 L 254 512 L 254 510 L 257 505 L 258 500 L 260 497 L 260 495 L 266 479 L 266 476 L 268 472 L 270 461 L 271 460 L 271 456 L 272 455 L 272 451 L 273 450 L 273 445 L 274 444 L 274 439 L 275 438 L 275 430 L 276 429 L 276 395 L 275 394 L 275 387 L 274 386 L 274 382 L 273 381 L 273 377 L 270 369 L 270 366 L 260 344 L 258 342 L 253 333 L 246 325 L 246 324 L 240 318 L 240 317 L 230 307 L 229 307 L 218 297 L 198 283 L 188 278 L 186 276 L 156 261 L 139 250 L 127 240 L 126 240 L 100 215 L 100 214 L 94 208 L 78 185 L 67 164 L 67 162 L 64 157 L 61 147 L 59 144 L 59 142 L 57 138 L 57 135 L 55 131 L 53 120 L 52 119 L 51 110 L 50 109 L 50 104 L 49 103 L 49 98 L 48 97 L 48 90 L 47 89 L 47 80 L 46 79 L 46 67 L 45 66 L 45 50 L 44 49 L 44 30 L 43 29 L 43 12 L 42 11 Z" fill="#FFFFFF" fill-rule="evenodd"/>
</svg>